<?xml version="1.0" standalone="no"?>
<!DOCTYPE svg PUBLIC "-//W3C//DTD SVG 20010904//EN"
 "http://www.w3.org/TR/2001/REC-SVG-20010904/DTD/svg10.dtd">
<svg version="1.0" xmlns="http://www.w3.org/2000/svg"
 width="1080.000000pt" height="1080.000000pt" viewBox="0 0 1080.000000 1080.000000"
 preserveAspectRatio="xMidYMid meet">
<metadata>
Created by potrace 1.14, written by Peter Selinger 2001-2017
</metadata>
<g transform="translate(0.000000,1080.000000) scale(0.100000,-0.100000)"
fill="#000000" stroke="none">
<path d="M765 9388 c-31 -78 -64 -163 -72 -188 -9 -25 -20 -56 -26 -70 -6 -14
-11 -27 -12 -30 -1 -3 -4 -12 -8 -20 -12 -31 -129 -375 -132 -390 -1 -3 -16
-52 -34 -110 -62 -203 -113 -377 -126 -435 -2 -11 -22 -94 -45 -184 -68 -272
-155 -711 -190 -956 -6 -44 -13 -91 -15 -105 -6 -37 -14 -98 -20 -155 -4 -27
-8 -61 -10 -75 -10 -65 -29 -260 -40 -405 -3 -44 -8 -98 -10 -120 -14 -128
-20 -383 -20 -775 1 -406 5 -554 20 -740 3 -36 8 -90 10 -120 15 -177 22 -246
40 -390 3 -22 7 -59 10 -82 3 -24 10 -74 15 -113 6 -38 12 -88 15 -110 3 -22
7 -51 9 -65 3 -14 14 -81 26 -150 28 -166 97 -516 119 -595 5 -22 13 -53 16
-70 3 -16 23 -100 46 -185 22 -85 42 -162 44 -171 15 -68 120 -414 181 -597
76 -227 249 -690 265 -706 5 -5 86 23 196 69 103 42 208 85 233 95 25 10 198
81 385 159 187 78 390 162 450 187 61 25 124 52 140 59 17 7 93 39 170 70 77
31 154 63 170 70 17 8 98 41 180 75 83 33 159 65 170 70 11 5 74 31 140 58
212 87 539 223 560 232 11 5 49 21 85 36 36 14 84 35 107 45 23 10 44 19 48
19 3 0 24 9 48 19 23 11 263 110 532 221 270 111 506 208 525 216 19 8 48 21
63 29 16 8 33 15 38 15 5 0 28 9 52 19 23 11 121 52 217 91 96 40 189 78 205
85 17 8 84 36 150 63 202 83 468 193 500 207 17 7 118 49 225 93 107 45 305
126 440 182 135 56 292 121 350 145 58 24 251 104 430 178 179 74 496 205 705
292 209 87 481 200 605 252 124 52 230 95 235 97 6 1 27 10 49 19 21 9 40 17
43 17 2 0 23 8 46 19 23 10 110 46 192 80 83 34 159 66 170 70 11 5 36 16 55
24 19 8 168 70 330 137 162 66 309 127 325 135 17 8 93 40 170 71 77 31 165
67 195 79 l55 23 -30 12 c-16 6 -43 17 -60 25 -33 14 -258 108 -785 325 -190
78 -358 148 -375 156 -16 7 -84 36 -150 62 -140 57 -746 308 -790 327 -16 7
-174 72 -350 145 -176 73 -333 138 -350 145 -16 8 -82 35 -145 60 -63 26 -131
54 -150 62 -67 29 -83 35 -400 166 -74 31 -207 85 -295 122 -88 36 -169 70
-180 75 -11 5 -96 41 -190 79 -93 38 -307 126 -475 196 -168 70 -393 163 -500
207 -344 142 -385 159 -405 168 -51 22 -172 72 -580 241 -427 176 -543 224
-785 324 -63 26 -128 53 -145 60 -16 8 -253 106 -525 218 -272 113 -560 232
-640 265 -80 33 -435 180 -790 327 -355 147 -697 289 -762 316 -64 27 -118 49
-121 49 -3 0 -31 -64 -62 -142z m2426 -1567 c3 0 5 -687 5 -1526 -1 -1518 -1
-1526 19 -1530 11 -2 159 -3 328 -2 170 1 313 -1 319 -4 8 -5 12 -246 9 -534
l-1 -60 -327 1 c-181 0 -332 -3 -338 -7 -6 -5 -10 -215 -9 -598 l1 -591 -296
2 -296 3 -2 580 c-1 319 -2 587 -2 595 -1 13 -107 15 -879 17 -482 1 -885 3
-894 3 -17 0 -18 21 -18 296 l0 297 109 186 c59 102 202 346 316 541 115 195
230 393 257 440 27 47 64 110 82 140 18 30 57 98 88 150 31 52 93 158 138 235
45 77 91 155 101 173 11 17 27 47 38 65 10 17 103 176 206 352 104 176 249
424 323 550 l134 230 292 -1 c160 -1 294 -2 297 -3z m2557 -1081 c254 -34 434
-118 584 -272 138 -143 225 -334 247 -546 16 -152 2 -377 -33 -527 -9 -43 -58
-163 -88 -215 -119 -213 -345 -354 -633 -395 -22 -4 -53 -9 -70 -12 -16 -3
-183 -6 -370 -7 l-340 -2 -5 -514 -5 -515 -232 1 c-128 1 -237 2 -243 3 -7 1
-10 510 -10 1505 l0 1505 28 3 c76 9 1093 -2 1170 -12z m2017 -721 c101 -23
181 -75 236 -155 34 -50 65 -142 52 -155 -5 -5 -29 -12 -54 -15 -24 -3 -81
-12 -127 -18 l-82 -12 -21 42 c-24 51 -67 74 -136 74 -102 0 -162 -69 -132
-153 16 -47 61 -77 155 -101 229 -59 324 -117 381 -234 35 -71 43 -192 19
-275 -43 -148 -196 -246 -394 -252 -211 -6 -371 74 -438 220 -32 69 -42 125
-23 126 8 0 22 2 31 4 9 2 54 6 100 9 46 4 93 9 105 12 18 5 25 -2 41 -38 25
-58 70 -80 158 -79 95 0 140 29 151 95 12 75 -30 120 -142 151 -194 53 -271
89 -341 156 -48 46 -84 130 -91 208 -16 194 103 350 297 390 100 20 162 20
255 0z"/>
<path d="M2565 6697 c-17 -28 -42 -72 -56 -97 -42 -73 -200 -342 -220 -375
-10 -16 -24 -41 -32 -55 -18 -32 -33 -58 -154 -265 -137 -232 -412 -703 -433
-740 -10 -16 -64 -109 -120 -205 -56 -96 -104 -180 -107 -186 -3 -8 158 -11
577 -11 523 0 580 2 581 16 3 61 1 1962 -2 1966 -3 2 -18 -19 -34 -48z"/>
<path d="M5062 6252 l-22 -3 2 -496 3 -496 308 0 c256 1 340 5 397 18 58 13
80 21 122 43 90 47 158 145 184 267 11 53 14 268 3 315 -26 121 -124 252 -221
298 -100 46 -152 53 -461 55 -161 1 -302 1 -315 -1z"/>
</g>
</svg>
