<svg xmlns="http://www.w3.org/2000/svg" viewBox="0 0 865.76 682.89"><rect x="649.09" y="328.1" width="78.99" height="305.46" fill="#B85D20"/><g opacity="0.2"><rect x="649.09" y="328.1" width="78.99" height="305.46"/></g><rect x="728.08" y="328.1" width="16.3" height="305.46" fill="#B85D20"/><g opacity="0.2"><polygon points="728.08 633.56 649.09 580.53 728.08 580.53 728.08 633.56"/></g><rect x="503.81" y="328.1" width="72.91" height="305.46" fill="#B85D20"/><rect x="576.73" y="328.1" width="18.78" height="305.46" fill="#B85D20"/><g opacity="0.2"><rect x="576.73" y="328.1" width="18.78" height="305.46"/></g><rect x="595.51" y="337.49" width="132.57" height="41.43" fill="#B85D20"/><g opacity="0.5"><rect x="595.51" y="337.49" width="132.57" height="41.43"/></g><rect x="595.51" y="363.45" width="108.27" height="6.63" fill="#075445"/><rect x="595.51" y="369.53" width="108.27" height="18.78" fill="#fcc98b"/><rect x="595.51" y="388.31" width="108.27" height="6.63" fill="#075445"/><g opacity="0.2"><path d="M624.13,373.95h79.64a0,0,0,0,1,0,0v3.31a0,0,0,0,1,0,0H624.13a.45.45,0,0,1-.45-.45V374.4A.45.45,0,0,1,624.13,373.95Z" fill="#fff"/></g><g opacity="0.2"><path d="M662.24,381.68h41.53a0,0,0,0,1,0,0V385a0,0,0,0,1,0,0H662.24a.45.45,0,0,1-.45-.45v-2.41A.45.45,0,0,1,662.24,381.68Z" fill="#fff"/></g><rect x="595.51" y="394.66" width="96.39" height="6.92" fill="#242E53"/><rect x="595.51" y="401" width="96.39" height="19.6" fill="#075445"/><path d="M599.65,401H691.9a0,0,0,0,1,0,0v19.6a0,0,0,0,1,0,0H599.65a2.67,2.67,0,0,1-2.67-2.67V403.67A2.67,2.67,0,0,1,599.65,401Z" fill="#fcc98b"/><rect x="595.51" y="420.61" width="96.39" height="6.92" fill="#242E53"/><g opacity="0.2"><path d="M621.06,405.61H691.9a0,0,0,0,1,0,0v3.46a0,0,0,0,1,0,0H621.06a.47.47,0,0,1-.47-.47v-2.52A.47.47,0,0,1,621.06,405.61Z" fill="#fff"/></g><g opacity="0.2"><path d="M655,413.69H691.9a0,0,0,0,1,0,0v3.46a0,0,0,0,1,0,0H655a.47.47,0,0,1-.47-.47v-2.52A.47.47,0,0,1,655,413.69Z" fill="#fff"/></g><rect x="595.51" y="427.53" width="132.85" height="6.63" fill="#B85D20"/><rect x="595.23" y="434.15" width="133.12" height="68.49" fill="#fcc98b"/><rect x="595.23" y="512.04" width="132.29" height="68.49" fill="#fcc98b"/><rect x="595.51" y="502.65" width="132.57" height="9.39" fill="#B85D20"/><circle cx="660.96" cy="473.1" r="6.35" fill="#B85D20"/><circle cx="660.96" cy="541.59" r="6.35" fill="#B85D20"/><g opacity="0.2"><polygon points="503.81 337.49 576.73 405.62 576.73 593.24 504.11 520.62 503.81 337.49" fill="#fff"/></g><polygon points="479.79 283.08 527.29 118.47 773.5 118.47 726.97 283.36 479.79 283.08" fill="#242E53"/><g opacity="0.67"><path d="M534.34,213.19l-6.4,26.11A2.16,2.16,0,0,0,530,242H678.25a2.16,2.16,0,0,0,2.08-1.61l6.91-26.11a2.15,2.15,0,0,0-2.09-2.7H536.44A2.15,2.15,0,0,0,534.34,213.19Z" fill="#fff"/></g><ellipse cx="550.21" cy="226.46" rx="4.97" ry="6.63" fill="#242E53"/><ellipse cx="576.73" cy="226.46" rx="4.97" ry="6.63" fill="#242E53"/><ellipse cx="604.9" cy="227.01" rx="4.97" ry="6.63" fill="#242E53"/><ellipse cx="631.41" cy="227.01" rx="4.97" ry="6.63" fill="#242E53"/><ellipse cx="659.58" cy="227.01" rx="4.97" ry="6.63" fill="#242E53"/><g opacity="0.2"><polygon points="754.6 185.46 565.8 283.18 479.79 283.18 495.03 230.26 697.89 118.47 773.5 118.47 754.6 185.46" fill="#fff"/></g><path d="M433.11,574.86l-2.76,38.82s-4.41,21,20.44,19.88L505,627.8a9.15,9.15,0,0,0,8.19-9.1h0a9.17,9.17,0,0,0-7.12-8.94l-40.93-9.34L464,569.49Z" fill="#f5ae97"/><polygon points="433.11 574.86 431.21 601.55 464.5 582.19 464.04 569.49 433.11 574.86" fill="#ed856e"/><rect x="426.48" y="149.68" width="39.77" height="69.6" fill="#242E53"/><g opacity="0.2"><polygon points="456.11 149.68 426.48 174.26 426.48 206.77 466.25 172.05 466.25 149.68 456.11 149.68" fill="#fff"/></g><path d="M463.49,188.9s-6.71-9.67,7.14-8.7c0,0,12,1,1,8.7,0,0,5,3.63-1,8.72,0,0,4.38,4.38,0,9.15,0,0,4.63,6.12-2.53,8.44a5.58,5.58,0,0,1-7.11-3.49c-.51-1.64-.2-3.48,2.38-4.95,0,0-6.27-4.54-.31-8.72C463.06,198.05,457.41,193.32,463.49,188.9Z" fill="#ed856e"/><rect x="426.48" y="219.28" width="39.77" height="10.5" fill="#075445"/><path d="M444.12,229.77l-97.48,77.38,1-46.42.94-18.8,62.87-31.7a10.51,10.51,0,0,0,5.29-6.23l3.59-11.43a21.17,21.17,0,0,1,6.27-9.69,15.86,15.86,0,0,1,3.55-2.38,3,3,0,0,1,3.93,4.2c-.56,1-1.14,2.17-1.68,3.36a17.09,17.09,0,0,0-1.2,10.22c1.23,6.49,2.55,19.56-4.74,26.25v5.24Z" fill="#ed856e"/><path d="M281.28,540.14,250.54,564s-18.57,10.74-1.15,28.5L289.88,629a9.16,9.16,0,0,0,12.25,0h0A9.18,9.18,0,0,0,304,617.77l-20.38-36.71,22.29-21.48Z" fill="#f5ae97"/><polygon points="281.28 540.14 260.15 556.55 296.78 568.4 305.93 559.58 281.28 540.14" fill="#ed856e"/><polygon points="262.57 545.18 301.64 566.73 399.18 449.62 395.55 430.84 317.88 430.84 262.57 545.18" fill="#075445"/><g opacity="0.2"><polygon points="262.57 545.18 301.64 566.73 399.18 449.62 395.55 430.84 317.88 430.84 262.57 545.18"/></g><path d="M395.55,430.84h-100l73-87.28,88.32,40.31s22.71,7.83,23,37.34l-9.16,151.64-45.81,9.34Z" fill="#075445"/><polygon points="304.68 113.5 296.12 154.1 338.48 163.32 344.5 140.9 335.8 102.18 304.68 113.5" fill="#f5ae97"/><polygon points="517.5 118.47 527.29 118.47 479.79 283.08 470.63 283.36 517.5 118.47" fill="#242E53"/><polygon points="773.5 118.47 785.96 118.47 738.61 283.36 726.97 283.36 773.5 118.47" fill="#242E53"/><g opacity="0.2"><polygon points="517.5 118.47 527.29 118.47 479.79 283.08 470.63 283.36 517.5 118.47"/><polygon points="773.5 118.47 785.96 118.47 738.61 283.36 726.97 283.36 773.5 118.47"/></g><polygon points="664.55 98.65 647.98 168.46 564.02 168.46 583.36 98.86 590.83 98.84 597.96 98.82 645.7 98.7 653.29 98.68 664.55 98.65" fill="#075445"/><polygon points="644.12 180.06 647.98 168.46 564.02 168.46 561.31 180.06 644.12 180.06" fill="#075445"/><g opacity="0.2"><polygon points="644.12 180.06 647.98 168.46 564.02 168.46 561.31 180.06 644.12 180.06"/></g><path d="M655.61,90.44l-2.32,8.24-7.59,0,2.34-8c3-13.11-5.12-25.48-18.22-26.6l-3.31-.29A20.85,20.85,0,0,0,605,77.93l-7,20.89-7.13,0,6.44-20.23a29.49,29.49,0,0,1,29.88-20.3l7.6.47A23.72,23.72,0,0,1,655.61,90.44Z" fill="#B85D20"/><path d="M598,98.82h3.82L609,78.63a15.34,15.34,0,0,1,4.72-6.74,19.15,19.15,0,0,1,14.93-4,24.59,24.59,0,0,1,5.85.88A14.48,14.48,0,0,1,644.68,86l-2.89,12.66,3.91,0,2.34-8,.46-1.93s3.07-14.57-10.32-22.13c0,0-5.67-3.61-15.33-2.82,0,0-12.59.28-17.75,13.8Z" fill="#B85D20"/><g opacity="0.2"><path d="M598,98.82h3.82L609,78.63a15.34,15.34,0,0,1,4.72-6.74,19.15,19.15,0,0,1,14.93-4,24.59,24.59,0,0,1,5.85.88A14.48,14.48,0,0,1,644.68,86l-2.89,12.66,3.91,0,2.34-8,.46-1.93s3.07-14.57-10.32-22.13c0,0-5.67-3.61-15.33-2.82,0,0-12.59.28-17.75,13.8Z"/></g><path d="M624.23,122.23a8,8,0,0,1-7.13,8.07l-5.73,18.07a1.88,1.88,0,0,1-1.79,1.31h0a1.88,1.88,0,0,1-1.82-2.38l4.89-17.79a8,8,0,1,1,11.58-7.28Z" fill="#B85D20"/><polygon points="595.68 283.36 604.9 319.23 671.31 319.23 659.58 283.36 595.68 283.36" fill="#242E53"/><g opacity="0.2"><polygon points="595.68 283.36 601.4 305.63 659.58 283.36 595.68 283.36"/></g><rect x="318.21" y="319.26" width="463.44" height="18.23" fill="#B85D20"/><path d="M343.42,172c4.32,14.08,8.12,41.71,3.76,95.07l-.79,58.83,22.09,17.67-90,107.72S182.88,427,205,317.05l10.15-81.36a125.65,125.65,0,0,1,19.06-52.85c12.85-19.82,33.74-39.58,65.24-37a159.5,159.5,0,0,1,26.85,7.68A29.13,29.13,0,0,1,343.42,172Z" fill="#242E53"/><g opacity="0.2"><polygon points="347.18 267.06 346.66 305.63 320.71 245.47 347.18 267.06" fill="#fff"/></g><g opacity="0.2"><rect x="335.67" y="304.9" width="1" height="25.97" transform="translate(-121.4 386.37) rotate(-51.91)"/></g><rect x="181.78" y="430.84" width="213.77" height="37.56" fill="#B85D20"/><g opacity="0.2"><rect x="181.78" y="455.7" width="213.77" height="12.7"/></g><rect x="218.79" y="349.09" width="12.15" height="112.68" fill="#075445"/><rect x="160.24" y="249.11" width="138.09" height="106.06" fill="#B85D20"/><g opacity="0.2"><rect x="160.24" y="341.91" width="138.09" height="13.26" fill="#fff"/></g><g opacity="0.2"><polygon points="298.33 249.11 160.24 341.91 298.33 341.91 298.33 249.11"/></g><polygon points="325.95 480.83 325.95 369.53 395.31 369.53 395.31 388.31 344.5 388.31 344.5 480.83 325.95 480.83" fill="#B85D20"/><g opacity="0.2"><rect x="344.5" y="379.43" width="51.05" height="8.88" fill="#fff"/></g><rect x="282.13" y="498.78" width="7.18" height="92.8" fill="#B85D20"/><polygon points="213.26 629.7 213.26 602.45 285.72 586.33 353.57 601.52 353.57 629.7 347.98 629.7 347.98 606.5 285.72 593.87 219.89 606.5 219.89 629.7 213.26 629.7" fill="#B85D20"/><polygon points="344.5 140.9 335.71 138.05 340.1 157.28 344.5 140.9" fill="#ed856e"/><path d="M363,278.94l32.35-52.48-49.6-57.18c-11.5-13.25-32.38-12.91-43.1,1-.25.32-.49.65-.73,1A43.84,43.84,0,0,0,295,207.52c2,8.2,2.8,12.49,11.48,23.12A131.59,131.59,0,0,0,327.32,251Z" fill="#242E53"/><path d="M363,278.94l32.35-52.48-49.6-57.18c-11.5-13.25-32.38-12.91-43.1,1-.25.32-.49.65-.73,1A43.84,43.84,0,0,0,295,207.52c2,8.2,2.8,12.49,11.48,23.12A131.59,131.59,0,0,0,327.32,251Z" fill="#242E53"/><g opacity="0.2"><path d="M363,278.94l32.35-52.48-49.6-57.18c-11.5-13.25-32.38-12.91-43.1,1-.25.32-.49.65-.73,1A43.84,43.84,0,0,0,295,207.52c2,8.2,2.8,12.49,11.48,23.12A131.59,131.59,0,0,0,327.32,251Z"/></g><path d="M289.12,45.66c1.4,3.3,9,3.62,12,3.62a.57.57,0,0,0,.41-1C294.56,40.83,287.42,41.68,289.12,45.66Z" fill="#0e4959"/><path d="M300.47,37.82c-1.49,2.17,1.28,7,2.46,8.88a.41.41,0,0,0,.74-.12C305.59,39.32,302.27,35.22,300.47,37.82Z" fill="#0e4959"/><path d="M285.91,85.79s0-22.66,14.58-27.47C300.49,58.32,282.39,57.83,285.91,85.79Z" fill="#06252c"/><path d="M319.3,38.82c-6.82,1.84-13.49,5.94-16.1,14.59,0,0,8.41,1.73,12.87,8.46,0,0-1.21-5.83-7.87-11.72A21.71,21.71,0,0,1,319.3,38.82Z" fill="#06252c"/><ellipse cx="354.12" cy="98.03" rx="33.7" ry="47.78" fill="#f5ae97"/><ellipse cx="334.87" cy="102.49" rx="9.37" ry="12.7" transform="translate(-13.44 138.84) rotate(-22.97)" fill="#f5ae97"/><path d="M347.83,28.19l-.15.1-.46.33-.09.06-.45.31-.34.24a54.35,54.35,0,0,1-22.55,8.67,38.91,38.91,0,0,0-4.49.92h0c-6.82,1.84-13.49,5.94-16.1,14.59,0,0-11.93-1.53-18.34,7.33-3.37,4.64-5.22,12.14-3,24.21a81.91,81.91,0,0,0,2.11,9c.07.26.14.51.22.75,0,0,0,0,0,0,.11.36.22.72.33,1.06,7.39,22.52,20.24,18.14,21.71,41.46A107,107,0,0,1,325,143.72c10.15,4.58,7.21-30.14,7.21-30.14s-10.16-6.5-7.36-15.49,10.6-8.83,14.42-5,15.32-3.68,13.11-11.63c0,0,28,6.47,34-24.59,1.72-8.85.22-16.55-3.27-22.36C376.09,22.88,361.09,18.82,347.83,28.19Z" fill="#0e4959"/><path d="M383.08,34.51s7.38,46.66-36.49,41.18c0,0,5.84,14.68-6.73,14,0,0-15.21-7.36-20,9.77-4.61,16.54-31.34,6.63-35.38-3.63,7.39,22.52,15.77,17.7,15.22,42,0,0,15.09,1.35,25.25,5.92s7.21-30.14,7.21-30.14-10.16-6.5-7.36-15.49,10.6-8.83,14.42-5,15.32-3.68,13.11-11.63c0,0,28,6.47,34-24.59,1.72-8.85.22-16.55-3.27-22.36Z" fill="#06252c"/><path d="M356.66,69.3c23.67-12.6,18.78-32.8,18.78-32.8C374.54,57.21,356.66,69.3,356.66,69.3Z" fill="#06252c"/><path d="M309.43,93.06c21.18-3.86,17.75-23,17.75-23C325.29,87.57,309.43,93.06,309.43,93.06Z" fill="#06252c"/><path d="M330.6,60.76s18.16,2.67,22.87-13.47C353.47,47.29,346.83,58.36,330.6,60.76Z" fill="#06252c"/><rect x="201.94" y="446.86" width="45.85" height="35.9" fill="#075445"/><g opacity="0.2"><rect x="201.94" y="446.86" width="45.85" height="35.9"/></g><polygon points="262.57 468.4 272.92 502.65 298.88 502.65 308.87 468.4 262.57 468.4" fill="#0e7c67"/><circle cx="213.82" cy="635.22" r="11.6" fill="#075445"/><circle cx="351.91" cy="635.22" r="11.6" fill="#075445"/><path d="M214.69,442.68c-8.13-27.12-13.53-44.42-13.92-50.32,0,0-9.77,25-15.47,39.19-12.59,31.3-15.63,55.64-2.59,81.32,0,0,.07,14,.19,14.64s14.45,14.31,14.45,14.31l21.56-13.28-1.47-23.38S222.83,469.8,214.69,442.68Z" fill="#166d4d"/><path d="M191.52,542.55l11.61,3.69s4-75-1.48-118.94C201.65,427.3,201.91,506.16,191.52,542.55Z" fill="#12563a"/><path d="M206.44,542.25s-20.25-55-69.44-69.18h0c-15.93-4.58-34.89-4.87-57.19,2.4,0,0,27.41-7.62,42.57,22.07.56,1.07,1.09,2.2,1.61,3.39,14.75,33.64,34.1,52.4,46.47,57.24,7.5,2.93,16.77,10.48,22.9,16,4,3.56,6.63,6.25,6.63,6.25l6.6-1.09-.07-19.49Z" fill="#208c68"/><path d="M119.67,475.93c.89.33,29.05,11.17,73.68,98.2,4,3.56,6.63,6.25,6.63,6.25l6.6-1.09-.07-19.49C195.34,539.44,162.33,485.87,119.67,475.93Z" fill="#166d4d"/><path d="M230.15,471.11h0c-41.44,25.53-45.93,81.1-45.93,81.1l4.42,16.1,4.91,17.87,6.33-.69s1.75-3.14,4.48-7.42c4.21-6.59,10.77-15.87,16.9-20.47,10.08-7.59,23-29.72,27.93-64.3.18-1.22.38-2.39.61-3.52,6.3-31.06,33.35-31.09,33.35-31.09C260.87,457.73,243.57,462.84,230.15,471.11Z" fill="#31a683"/><path d="M188.63,568.31l4.91,17.87,6.33-.69s1.75-3.14,4.48-7.42C223,487,246,469.83,246.74,469.3,210.2,489.31,193.66,546.81,188.63,568.31Z" fill="#208c68"/><path d="M189.27,561.15c-12-12-31.94-25.09-56.37-15.12-32.73,13.35-39.71,52.79-41.19,67.69A1.92,1.92,0,0,0,95,615.2c12.4-13.68,54-54.37,96.84-37.89q2.4.91,4.8,2.09a5.34,5.34,0,0,0,1.79.52,2.74,2.74,0,0,0,2.83-1.26,3,3,0,0,0-.18-3A92.76,92.76,0,0,0,189.27,561.15Z" fill="#31a683"/><path d="M109.35,581c3.09-4.19,37.5-46.38,82.53-3.65q2.4.91,4.8,2.09a5.34,5.34,0,0,0,1.79.52,2.74,2.74,0,0,0,2.83-1.26,3,3,0,0,0-.18-3S152.16,521.47,109.35,581Z" fill="#208c68"/><path d="M109.35,581a.77.77,0,0,0-.09.13Z" fill="#208c68"/><path d="M109.18,581.2a.59.59,0,0,1,.08-.11A.44.44,0,0,0,109.18,581.2Z" fill="#3c7219"/><path d="M109.18,581.2a.23.23,0,0,0-.05.07Z" fill="#3c7219"/><path d="M246.25,520.47c-28.46,3.24-40.61,26.07-45.79,43.78a102,102,0,0,0-3.72,20,3.22,3.22,0,0,0,1.39,2.94,3,3,0,0,0,3.35-.27,5.59,5.59,0,0,0,1.44-1.43c1.12-1.58,2.28-3.07,3.49-4.49,32.19-38,93-21,111.94-14.41a2.08,2.08,0,0,0,2.39-3.15C311.57,550,284.37,516.12,246.25,520.47Z" fill="#208c68"/><path d="M200.46,564.25a102,102,0,0,0-3.72,20,3.22,3.22,0,0,0,1.39,2.94,3,3,0,0,0,3.35-.27,5.59,5.59,0,0,0,1.44-1.43c1.12-1.58,2.28-3.07,3.49-4.49,20.81-64.85,76.48-41.32,80.62-39.47C235.8,516.68,211.27,543.17,200.46,564.25Z" fill="#166d4d"/><path d="M112.62,520.3c64.3,15.27,83.1,53.4,83.1,53.4C174.06,528.93,112.62,520.3,112.62,520.3Z" fill="#03211b"/><path d="M120.39,511.37a.62.62,0,0,0-1,.6c.95,5.62,3.48,7,4.66,7.42a.62.62,0,0,0,.79-.49C125.07,517.69,125,514.78,120.39,511.37Z" fill="#03211b"/><path d="M127.53,513.22a.63.63,0,0,0-1,.53c.51,5.67,2.92,7.3,4.06,7.76a.62.62,0,0,0,.83-.43C131.69,519.89,131.81,517,127.53,513.22Z" fill="#03211b"/><path d="M134.55,516.7c-.4,5.08,1.48,6.87,2.43,7.44a.55.55,0,0,0,.79-.25c.45-1,1-3.55-2.23-7.49A.56.56,0,0,0,134.55,516.7Z" fill="#03211b"/><path d="M142,519.08c-1.39,4.89.1,7,.91,7.77a.55.55,0,0,0,.82-.09c.65-.9,1.67-3.29-.7-7.79A.56.56,0,0,0,142,519.08Z" fill="#03211b"/><path d="M149.08,522c-2,4.35-.92,6.55-.28,7.36a.52.52,0,0,0,.78,0c.73-.74,2-2.81.48-7.35A.53.53,0,0,0,149.08,522Z" fill="#03211b"/><path d="M157.78,524.09c-3.95,2.72-4.15,5.15-4,6.18a.53.53,0,0,0,.65.44c1-.27,3.18-1.39,4.17-6.07A.53.53,0,0,0,157.78,524.09Z" fill="#03211b"/><path d="M120.48,525c-1.16-.44-4-.84-8.22,3a.63.63,0,0,0,.41,1.09c5.71.08,7.58-2.16,8.15-3.25A.62.62,0,0,0,120.48,525Z" fill="#03211b"/><path d="M126.93,527.26c-1.19-.34-4.1-.52-8,3.68a.62.62,0,0,0,.5,1c5.69-.37,7.38-2.74,7.86-3.88A.62.62,0,0,0,126.93,527.26Z" fill="#03211b"/><path d="M133.63,529.09c-1.1-.12-3.68.15-6.47,4.42a.56.56,0,0,0,.6.85c5-1.17,6.09-3.51,6.35-4.58A.56.56,0,0,0,133.63,529.09Z" fill="#03211b"/><path d="M140,530.54c-1.1.1-3.58.88-5.47,5.61a.56.56,0,0,0,.75.71c4.63-2.12,5.28-4.64,5.32-5.75A.55.55,0,0,0,140,530.54Z" fill="#03211b"/><path d="M145.21,533.35c-1,.42-3.15,1.91-3.52,7a.56.56,0,0,0,.94.45c3.77-3.43,3.62-6,3.33-7.09A.55.55,0,0,0,145.21,533.35Z" fill="#03211b"/><path d="M151.62,535.91c-1,.52-3,2.2-2.83,7.3a.56.56,0,0,0,1,.36c3.43-3.77,3-6.34,2.65-7.37A.56.56,0,0,0,151.62,535.91Z" fill="#03211b"/><path d="M201.91,576s5.5-54,75.58-100.88C277.49,475.08,207.87,512.77,201.91,576Z" fill="#03211b"/><path d="M264.22,467.87c-3.94,6.11-2.78,9.64-2,11a.79.79,0,0,0,1.16.22c1.25-1,3.64-3.8,2.27-10.94A.79.79,0,0,0,264.22,467.87Z" fill="#03211b"/><path d="M256.51,473.26c-3.44,6.41-2,9.83-1.11,11.13a.79.79,0,0,0,1.18.13c1.17-1.06,3.33-4.08,1.4-11.09A.8.8,0,0,0,256.51,473.26Z" fill="#03211b"/><path d="M248.35,480.63c-2.08,6.15-.32,8.95.67,10a.71.71,0,0,0,1.06-.06c.87-1.1,2.32-4.08-.41-10A.71.71,0,0,0,248.35,480.63Z" fill="#03211b"/><path d="M240.6,487c-.83,6.44,1.46,8.84,2.62,9.63a.71.71,0,0,0,1-.27c.64-1.25,1.47-4.46-2.37-9.69A.71.71,0,0,0,240.6,487Z" fill="#03211b"/><path d="M233.52,493.9c.17,6.1,2.64,8,3.84,8.57a.66.66,0,0,0,.91-.4c.41-1.25.73-4.36-3.61-8.67A.67.67,0,0,0,233.52,493.9Z" fill="#03211b"/><path d="M225.19,499.74a.67.67,0,0,0-.73,1c3.26,5.16,6.36,5.53,7.68,5.4a.66.66,0,0,0,.58-.81C232.43,504.05,231.11,501.23,225.19,499.74Z" fill="#03211b"/><path d="M281.36,484.15c-6.73-2.77-10-1-11.19,0a.79.79,0,0,0,0,1.19c1.17,1.06,4.4,2.89,11.18.26A.8.8,0,0,0,281.36,484.15Z" fill="#03211b"/><path d="M274.64,490.63c-6.5-3.29-9.89-1.78-11.16-.84a.8.8,0,0,0-.11,1.18c1.09,1.15,4.16,3.23,11.14,1.14A.8.8,0,0,0,274.64,490.63Z" fill="#03211b"/><path d="M266,497.36c-5.23-3.86-8.44-3-9.7-2.4a.72.72,0,0,0-.27,1c.79,1.17,3.19,3.46,9.64,2.65A.71.71,0,0,0,266,497.36Z" fill="#03211b"/><path d="M249.37,499.51a.7.7,0,0,0-.46.95c.54,1.3,2.43,4,8.92,4.51a.72.72,0,0,0,.58-1.19C254,499,250.73,499.13,249.37,499.51Z" fill="#03211b"/><path d="M244.33,505.2a.71.71,0,0,0-.73.77c.12,1.41,1.11,4.57,7.14,7a.71.71,0,0,0,.92-1C249,506.09,245.74,505.26,244.33,505.2Z" fill="#03211b"/><path d="M237.8,511.12a.71.71,0,0,0-.8.7c0,1.41.67,4.66,6.45,7.64a.72.72,0,0,0,1-.87C242.32,512.45,239.2,511.31,237.8,511.12Z" fill="#03211b"/><path d="M194.45,612.16c28.1-95.22-51.09-190.44-51.09-190.44C217.85,530.6,194.45,612.16,194.45,612.16Z" fill="#03211b"/><path d="M164.55,418.53c-6.13,9.57-4.32,15.08-3.07,17.21a1.25,1.25,0,0,0,1.83.35c1.95-1.51,5.68-6,3.52-17.13A1.25,1.25,0,0,0,164.55,418.53Z" fill="#03211b"/><path d="M172.65,430.67c-6.88,9.06-5.5,14.7-4.42,16.91a1.26,1.26,0,0,0,1.8.5c2.06-1.35,6.12-5.5,4.85-16.8A1.24,1.24,0,0,0,172.65,430.67Z" fill="#03211b"/><path d="M180.58,445.85c-7.4,7-7,12.13-6.4,14.24a1.11,1.11,0,0,0,1.51.7c2-.88,6.21-3.93,6.76-14.07A1.11,1.11,0,0,0,180.58,445.85Z" fill="#03211b"/><path d="M188.33,459.28c-8.63,5.37-9.28,10.51-9.09,12.7a1.11,1.11,0,0,0,1.34,1c2.15-.47,6.87-2.63,9.41-12.46A1.11,1.11,0,0,0,188.33,459.28Z" fill="#03211b"/><path d="M194.9,473.23c-8.8,3.74-10.15,8.43-10.29,10.49a1,1,0,0,0,1.1,1.11c2.07-.12,6.77-1.45,10.56-10.22A1,1,0,0,0,194.9,473.23Z" fill="#03211b"/><path d="M205,487.94c-9.47-1.28-13,2.05-14.2,3.76a1,1,0,0,0,.38,1.51c1.84,1,6.55,2.22,14.3-3.38A1.05,1.05,0,0,0,205,487.94Z" fill="#03211b"/><path d="M132.47,432.64a1.25,1.25,0,0,0-.84,2.16c8.32,7.77,14.08,7,16.4,6.13a1.26,1.26,0,0,0,.67-1.74C147.57,437,143.86,432.53,132.47,432.64Z" fill="#03211b"/><path d="M138.46,446a1.25,1.25,0,0,0-.67,2.22c8.91,7.1,14.59,5.85,16.83,4.82a1.24,1.24,0,0,0,.53-1.78C153.85,449.12,149.8,445,138.46,446Z" fill="#03211b"/><path d="M147.11,460.77a1.11,1.11,0,0,0-.26,2.05c8.9,4.93,13.72,3,15.54,1.75a1.11,1.11,0,0,0,.21-1.65C161.14,461.27,157,458.2,147.11,460.77Z" fill="#03211b"/><path d="M170,473.54c-1.76-1.33-6.47-3.51-15.61.95a1.11,1.11,0,0,0,.16,2.06c9.69,3.07,14,.22,15.57-1.35A1.11,1.11,0,0,0,170,473.54Z" fill="#03211b"/><path d="M174,484.74c-2.07-.74-7.22-1.39-14.59,5.63a1.12,1.12,0,0,0,.77,1.92c10.18,0,13.45-4,14.44-6A1.12,1.12,0,0,0,174,484.74Z" fill="#03211b"/><path d="M180,497.14c-2.13-.54-7.32-.71-14,7a1.12,1.12,0,0,0,1,1.84c10.13-1,13-5.29,13.8-7.34A1.1,1.1,0,0,0,180,497.14Z" fill="#03211b"/><rect x="170.13" y="571.79" width="59.97" height="88.1" rx="4.68" fill="#0e4959"/><g opacity="0.2"><path d="M225.42,571.79h-5.49c-.48,18-5.8,68.22-49.8,80.53v2.89a4.68,4.68,0,0,0,4.68,4.68h50.61a4.69,4.69,0,0,0,4.68-4.68V576.47A4.68,4.68,0,0,0,225.42,571.79Z"/></g><path d="M721.47,319.25c-3.8-3.08-7.88-6.1-12.53-7.75a20.64,20.64,0,0,0-9.58-.91c-3.58.45-7.09,1.32-10.65,1.81a59.34,59.34,0,0,1-16.41,0A56.65,56.65,0,0,1,654,306.66c-3.74-2-7.41-4.13-11.45-5.42a34.88,34.88,0,0,0-15-1,41.27,41.27,0,0,0-7.87,1.58,44.5,44.5,0,0,0-6.71,2.95c-8.25,4.36-16.7,11.46-26.63,10.39a18.59,18.59,0,0,1-3.68-.8c-.94-.29-1.34,1.18-.4,1.48a21.9,21.9,0,0,0,14.16-.56c4.64-1.68,8.85-4.32,13.08-6.8s8.5-4.87,13.27-5.94a50.41,50.41,0,0,1,8.66-1.1,31.91,31.91,0,0,1,7.43.44c4.13.79,7.84,2.64,11.52,4.6,2.23,1.2,4.45,2.4,6.78,3.38a59.23,59.23,0,0,0,9.45,3.07,60.25,60.25,0,0,0,18,1.43,110.86,110.86,0,0,0,11.9-1.78,25.11,25.11,0,0,1,9.18-.38c4.07.77,7.72,3,11,5.34,1.24.89,2.45,1.83,3.64,2.79C721.14,321,722.23,319.87,721.47,319.25Z"/><path d="M594.8,313.92c-3.44-3.7-18-17.79-39.1-16.89h0a46.81,46.81,0,0,0-8.72,1.21s-15,4.91-18.73,15.92a15.76,15.76,0,0,0-.84,5.07h65.47l.28,0,.18,0a2.78,2.78,0,0,0,.51-.17l.19-.09.23-.13.15-.11.18-.15.14-.13,0,0,.12-.13a2.55,2.55,0,0,0,.28-.39,2,2,0,0,0,.11-.2,1,1,0,0,0,.09-.21h0l.06-.17.06-.19a.43.43,0,0,1,0-.11,2.57,2.57,0,0,0,.06-.4c0-.07,0-.14,0-.22v-.38a2.94,2.94,0,0,0-.59-1.76Z" fill="#B85D20"/><g opacity="0.2"><path d="M595,314.16l-.2-.24c-3.44-3.7-18-17.79-39.1-16.89a60.68,60.68,0,0,1,36.59,17.13h-64a15.76,15.76,0,0,0-.84,5.07h65.47l.28,0,.18,0a2.78,2.78,0,0,0,.51-.17l.19-.09.23-.13.15-.11.18-.15.14-.13,0,0,.12-.13a2.14,2.14,0,0,0,.28-.39,2,2,0,0,0,.11-.2,1,1,0,0,0,.09-.21h0l.06-.17s0,0,0-.05h0a.17.17,0,0,1,0-.07l0-.08a.43.43,0,0,1,0-.11s0-.06,0-.1,0-.12,0-.18a.43.43,0,0,0,0-.12c0-.07,0-.14,0-.22v-.38A2.94,2.94,0,0,0,595,314.16Z"/></g><path d="M363,278.94l40.34,33.35a30.32,30.32,0,0,0,19.29,6.94h83.6l9.74-6.36a11,11,0,0,1,9.3-1.25c7.28,2.29,21.42,5,30.62-4a10,10,0,0,1,5.27-2.65l15.73-2.84a4.28,4.28,0,0,0,3.29-5.56h0a4.27,4.27,0,0,0-2.84-2.75l-17.4-5.17a32.09,32.09,0,0,0-10-1.32,264.67,264.67,0,0,0-31.31,2.55,16.89,16.89,0,0,1-7.48-.52c-13.88-4.19-62.46-18.8-78-22.34l-39.73-37.47Z" fill="#f5ae97"/></svg>